<svg width="471" height="266" viewBox="0 0 471 266" fill="none" xmlns="http://www.w3.org/2000/svg">
<rect width="471" height="266" rx="18" fill="#FFD643"/>
<rect x="20.5" y="12.5" width="430" height="241" rx="16.5" stroke="white" stroke-width="3" stroke-dasharray="5 5"/>
<path d="M94.8901 85.5792L88.9259 63.8311L90.2456 63.4849L96.2196 85.216L94.8901 85.5792Z" fill="white"/>
<path d="M230.263 85.577L228.936 85.2577L234.905 63.4847L236.224 63.8309L230.26 85.579L230.263 85.577Z" fill="white"/>
<path d="M111.779 66.72C112.099 68.34 114.039 78.42 114.339 80.22C114.479 80.82 114.519 81.5 114.619 82.24L117.499 81.74C117.319 81.08 117.139 80.36 116.999 79.78C116.579 77.74 114.599 67.62 114.399 66.3C114.319 65.82 114.239 65.14 114.199 64.76L111.359 65.22C111.519 65.68 111.659 66.16 111.779 66.72ZM106.319 69.28L106.859 72.04C107.539 71.86 108.059 71.74 108.679 71.62C110.179 71.36 117.059 70.26 119.179 69.92C119.779 69.84 120.599 69.72 121.039 69.7L120.539 67.06C120.059 67.2 119.299 67.38 118.679 67.48C116.879 67.84 109.879 68.92 108.179 69.12C107.539 69.2 106.939 69.24 106.319 69.28ZM106.339 75.14L106.899 77.82C107.339 77.7 108.039 77.58 108.899 77.42C110.879 77.04 118.079 75.86 120.619 75.48C121.359 75.36 122.179 75.22 122.719 75.18L122.199 72.54C121.659 72.68 120.919 72.86 120.139 73C117.839 73.44 110.539 74.62 108.399 74.92C107.779 75.02 106.859 75.12 106.339 75.14ZM132.499 68.3L129.799 68.94C130.019 69.36 130.239 69.86 130.379 70.36C131.019 72.44 132.839 79.58 133.339 81.32C133.499 81.88 133.619 82.54 133.699 83.08L136.399 82.4C136.259 82 135.979 81.12 135.879 80.76C135.379 79.1 133.499 72.22 132.819 69.82C132.699 69.3 132.559 68.78 132.499 68.3ZM142.099 71.4L140.479 70.26C140.219 70.38 139.819 70.5 139.479 70.58C138.059 70.9 130.059 72.42 128.979 72.58C128.319 72.7 127.759 72.76 127.139 72.82L127.759 75.2C129.399 74.84 137.539 73.14 138.579 72.96C138.039 73.94 136.659 75.62 135.619 76.54L137.839 77.64C139.239 76.16 141.239 73.14 142.099 71.4ZM149.319 65.8L147.419 67.82C148.879 68.82 151.399 71 152.439 72.12L154.479 70.04C153.299 68.82 150.699 66.74 149.319 65.8ZM146.799 79.12L148.499 81.76C151.299 81.28 153.879 80.18 155.919 78.96C159.139 77.02 161.799 74.26 163.299 71.54L161.759 68.74C160.479 71.44 157.879 74.48 154.459 76.52C152.519 77.66 149.939 78.68 146.799 79.12ZM178.939 68.76C178.939 68.06 179.519 67.5 180.219 67.5C180.919 67.5 181.479 68.06 181.479 68.76C181.479 69.46 180.919 70.04 180.219 70.04C179.519 70.04 178.939 69.46 178.939 68.76ZM177.619 68.76C177.619 70.2 178.779 71.36 180.219 71.36C181.659 71.36 182.819 70.2 182.819 68.76C182.819 67.32 181.659 66.16 180.219 66.16C178.779 66.16 177.619 67.32 177.619 68.76ZM165.199 75.32L167.599 77.8C167.959 77.28 168.419 76.56 168.879 75.94C169.699 74.84 171.099 72.88 171.899 71.86C172.459 71.14 172.879 71.1 173.539 71.74C174.259 72.48 176.019 74.42 177.199 75.8C178.379 77.18 180.059 79.26 181.399 80.92L183.619 78.54C182.079 76.9 180.019 74.7 178.679 73.26C177.479 71.96 175.959 70.38 174.599 69.1C173.059 67.64 171.879 67.86 170.679 69.28C169.299 70.92 167.739 72.88 166.839 73.78C166.219 74.4 165.779 74.82 165.199 75.32ZM186.319 71.74V74.9C187.079 74.84 188.419 74.78 189.539 74.78C191.899 74.78 198.479 74.78 200.299 74.78C201.139 74.78 202.159 74.88 202.639 74.9V71.74C202.099 71.78 201.219 71.88 200.279 71.88C198.499 71.88 191.899 71.88 189.539 71.88C188.499 71.88 187.059 71.8 186.319 71.74ZM208.322 65.8L206.422 67.82C207.882 68.82 210.402 71 211.442 72.12L213.482 70.04C212.302 68.82 209.702 66.74 208.322 65.8ZM205.802 79.12L207.502 81.76C210.302 81.28 212.882 80.18 214.922 78.96C218.142 77.02 220.802 74.26 222.302 71.54L220.762 68.74C219.482 71.44 216.882 74.48 213.462 76.52C211.522 77.66 208.942 78.68 205.802 79.12Z" fill="white"/>
<path d="M116.28 39.92V42.08H121.46V39.92H116.28ZM116.28 44.44V46.54H121.46V44.44H116.28ZM116.28 49V51.14H121.48V49H116.28ZM120.42 39.92V55.12C120.42 55.42 120.32 55.52 120.02 55.52C119.74 55.54 118.76 55.54 117.9 55.5C118.2 56.1 118.52 57.14 118.58 57.78C120.08 57.78 121.1 57.72 121.8 57.34C122.52 56.98 122.74 56.32 122.74 55.16V39.92H120.42ZM115.3 39.92V47.26C115.3 50.12 115.18 53.92 113.68 56.48C114.2 56.72 115.18 57.42 115.58 57.84C117.28 55 117.54 50.42 117.54 47.26V39.92H115.3ZM104.82 41.38V43.46H114.62V41.38H104.82ZM107.44 44.64V46.48H112.2V44.64H107.44ZM107.44 47.76V49.58H112.22V47.76H107.44ZM104.58 50.92V53.02H114.48V50.92H104.58ZM106.4 39.24V51.68H108.56V39.24H106.4ZM111.06 39.24V51.68H113.26V39.24H111.06ZM107.08 53.16C106.52 54.38 105.5 55.62 104.42 56.44C104.98 56.76 105.9 57.44 106.36 57.84C107.42 56.86 108.6 55.3 109.34 53.82L107.08 53.16ZM110.04 54.06C110.84 55 111.8 56.32 112.2 57.12L114.14 55.98C113.68 55.16 112.66 53.94 111.86 53.06L110.04 54.06ZM131.24 51.22V52.94H136.72V51.22H131.24ZM131.1 48.26V50.02H135.6V54.18H131.1V55.94H137.84V48.26H131.1ZM130.12 48.26V56.96H132.28V48.26H130.12ZM126.76 42.56V44.18H131.78V42.56H126.76ZM136.04 42.56V44.18H141.1V42.56H136.04ZM140.12 39.78V54.94C140.12 55.28 140 55.4 139.64 55.4C139.28 55.4 138.06 55.42 137.02 55.36C137.34 56 137.7 57.12 137.8 57.8C139.52 57.8 140.68 57.76 141.48 57.36C142.28 56.96 142.54 56.26 142.54 54.96V39.78H140.12ZM126.96 39.78V41.52H131.04V45.32H126.96V47.04H133.28V39.78H126.96ZM141.4 39.78H134.64V47.1H141.4V45.38H136.92V41.52H141.4V39.78ZM125.58 39.78V57.8H127.96V39.78H125.58ZM154.1 43.58V45.54H161V43.58H154.1ZM150.66 55.16L151.46 57.5C153.36 57.08 155.82 56.54 158.14 56L157.96 53.92C155.28 54.4 152.48 54.9 150.66 55.16ZM152.74 39.92V55.72H155.08V39.92H152.74ZM154.1 39.92V41.98H159.72V47.2H154.1V49.26H162.08V39.92H154.1ZM158.28 47.9L156.28 48.22C157.14 52.64 158.7 56.04 161.92 57.74C162.26 57.12 162.96 56.18 163.48 55.72C160.54 54.42 159 51.46 158.28 47.9ZM161.16 49.4C160.42 50.4 159.12 51.66 158.16 52.44L159.66 53.6C160.66 52.88 161.94 51.76 163.04 50.72L161.16 49.4ZM145.46 39.88V57.82H147.7V42.02H150.46V39.88H145.46ZM149.8 39.88V40.6C149.48 41.88 148.8 44.72 148.22 46.52C149.4 47.88 149.7 49.12 149.7 50.06C149.7 50.62 149.6 51.02 149.34 51.2C149.16 51.32 148.96 51.36 148.74 51.38C148.48 51.38 148.2 51.38 147.82 51.34C148.16 51.94 148.34 52.88 148.36 53.48C148.84 53.5 149.36 53.5 149.74 53.44C150.2 53.38 150.6 53.24 150.92 53C151.58 52.54 151.88 51.7 151.88 50.36C151.88 49.2 151.62 47.82 150.3 46.26C150.92 44.7 151.64 42.48 152.18 40.74L150.56 39.8L150.22 39.88H149.8ZM168.46 45.06V47.34H179.52V45.06H168.46ZM173.98 49.86V52.1H180.74V49.86H173.98ZM172.72 46.38V55.74L175.24 56.04V46.38H172.72ZM167.94 48.46C167.6 51.9 166.6 54.68 164.44 56.28C165 56.64 166.02 57.5 166.42 57.92C168.7 55.96 169.94 52.78 170.46 48.72L167.94 48.46ZM169.88 50.96L167.92 51.62C169.64 56.66 172.76 57.6 177.38 57.6H182.42C182.52 56.88 182.92 55.72 183.26 55.16C181.92 55.2 178.58 55.2 177.52 55.2C173.96 55.2 171.16 54.64 169.88 50.96ZM172.68 39.04V42.7H175.24V39.04H172.68ZM165.4 41.06V46.08H167.76V43.34H180.12V46.08H182.6V41.06H165.4Z" fill="white"/>
<path d="M92.1114 224H96.4954V200.32H90.8314L82.0314 214.656V217.888H99.3114V214.272H86.6074L90.2554 208.384C90.9274 207.104 91.5674 205.792 92.1754 204.512H92.3034C92.2394 205.92 92.1114 208.064 92.1114 209.44V224ZM100.65 229.824H103.786L111.754 198.208H108.65L100.65 229.824ZM115.201 224H129.473V220.192H125.025V200.32H121.537C120.001 201.248 118.401 201.856 116.001 202.304V205.216H120.321V220.192H115.201V224ZM140.316 224.448C144.668 224.448 148.604 221.408 148.604 216.16C148.604 210.976 145.276 208.64 141.308 208.64C140.22 208.64 139.388 208.864 138.46 209.28L138.908 204.256H147.516V200.32H134.844L134.172 211.808L136.348 213.216C137.724 212.32 138.492 211.968 139.9 211.968C142.268 211.968 143.868 213.504 143.868 216.256C143.868 219.072 142.172 220.64 139.676 220.64C137.5 220.64 135.804 219.552 134.492 218.24L132.284 221.216C134.076 222.976 136.572 224.448 140.316 224.448ZM155.975 228.848L158.159 227.936C156.143 224.432 155.231 220.376 155.231 216.44C155.231 212.528 156.143 208.472 158.159 204.968L155.975 204.032C153.695 207.728 152.375 211.664 152.375 216.44C152.375 221.24 153.695 225.152 155.975 228.848ZM160.87 209.216V212.072H181.99V209.216H160.87ZM169.87 203.624V226.16H172.942V203.624H169.87ZM169.246 210.8C167.398 215.024 163.75 219.272 159.79 221.432C160.462 222.032 161.446 223.16 161.95 223.904C166.078 221.288 169.63 216.704 171.79 211.64L169.246 210.8ZM173.494 210.92L171.094 211.76C173.302 216.632 176.854 221.216 180.862 223.808C181.342 223.016 182.35 221.864 183.046 221.288C179.134 219.176 175.39 215 173.494 210.92ZM186.862 228.848C189.118 225.152 190.438 221.24 190.438 216.44C190.438 211.664 189.118 207.728 186.862 204.032L184.654 204.968C186.67 208.472 187.606 212.528 187.606 216.44C187.606 220.376 186.67 224.432 184.654 227.936L186.862 228.848ZM207.028 213.216C209.236 215.616 211.54 216.768 214.612 216.768C218.036 216.768 221.14 214.816 223.284 210.848L219.796 208.96C218.58 211.232 216.756 212.768 214.676 212.768C212.5 212.768 211.316 211.936 209.94 210.496C207.732 208.096 205.428 206.944 202.356 206.944C198.932 206.944 195.828 208.896 193.684 212.864L197.172 214.752C198.388 212.48 200.212 210.944 202.292 210.944C204.5 210.944 205.652 211.808 207.028 213.216ZM233.332 224.448C237.684 224.448 241.62 221.408 241.62 216.16C241.62 210.976 238.292 208.64 234.324 208.64C233.236 208.64 232.404 208.864 231.476 209.28L231.924 204.256H240.532V200.32H227.86L227.188 211.808L229.364 213.216C230.74 212.32 231.508 211.968 232.916 211.968C235.284 211.968 236.884 213.504 236.884 216.256C236.884 219.072 235.188 220.64 232.692 220.64C230.516 220.64 228.82 219.552 227.508 218.24L225.3 221.216C227.092 222.976 229.588 224.448 233.332 224.448ZM243.791 229.824H246.927L254.895 198.208H251.791L243.791 229.824ZM258.342 224H272.614V220.192H268.166V200.32H264.678C263.142 201.248 261.542 201.856 259.142 202.304V205.216H263.462V220.192H258.342V224ZM285.377 224H289.761V200.32H284.097L275.297 214.656V217.888H292.577V214.272H279.873L283.521 208.384C284.193 207.104 284.833 205.792 285.441 204.512H285.569C285.505 205.92 285.377 208.064 285.377 209.44V224ZM299.116 228.848L301.3 227.936C299.284 224.432 298.372 220.376 298.372 216.44C298.372 212.528 299.284 208.472 301.3 204.968L299.116 204.032C296.836 207.728 295.516 211.664 295.516 216.44C295.516 221.24 296.836 225.152 299.116 228.848ZM303.794 209.504V212.408H310.49V209.504H303.794ZM313.13 203.648V222.416C313.13 222.872 312.962 223.016 312.482 223.04C311.954 223.04 310.442 223.04 308.858 222.968C309.314 223.832 309.89 225.296 310.01 226.184C312.194 226.184 313.778 226.064 314.81 225.56C315.818 225.032 316.178 224.168 316.178 222.44V203.648H313.13ZM309.506 209.504V210.128C308.69 215.432 306.338 219.608 303.05 221.816C303.746 222.248 304.922 223.424 305.426 224.096C308.858 221.576 311.498 216.68 312.602 210.128L310.61 209.408L310.106 209.504H309.506ZM316.01 207.152L313.73 207.632C315.434 215.048 318.29 221.288 323.858 224.432C324.338 223.544 325.346 222.344 326.066 221.744C320.69 219.176 317.546 213.512 316.01 207.152ZM322.73 207.368C321.242 209.504 318.698 212.12 316.754 213.728L318.818 215.36C320.834 213.848 323.402 211.424 325.442 209.264L322.73 207.368ZM330.002 228.848C332.258 225.152 333.578 221.24 333.578 216.44C333.578 211.664 332.258 207.728 330.002 204.032L327.794 204.968C329.81 208.472 330.746 212.528 330.746 216.44C330.746 220.376 329.81 224.432 327.794 227.936L330.002 228.848Z" fill="white"/>
<path d="M333.508 184.873C348.508 184.873 358.508 171.773 358.508 146.173C358.508 120.673 348.508 108.173 333.508 108.173C318.408 108.173 308.408 120.673 308.408 146.173C308.408 171.773 318.408 184.873 333.508 184.873ZM333.508 173.373C327.108 173.373 322.308 166.973 322.308 146.173C322.308 125.473 327.108 119.473 333.508 119.473C339.908 119.473 344.608 125.473 344.608 146.173C344.608 166.973 339.908 173.373 333.508 173.373Z" fill="#FF3B10"/>
<path d="M330.508 183.4C338.344 183.4 344.903 179.957 349.461 173.21C353.99 166.508 356.508 156.609 356.508 143.7H354.508C354.508 156.391 352.026 165.842 347.804 172.09C343.613 178.293 337.672 181.4 330.508 181.4V183.4ZM356.508 143.7C356.508 130.841 353.99 121.111 349.455 114.568C344.887 107.978 338.326 104.7 330.508 104.7V106.7C337.69 106.7 343.628 109.672 347.811 115.707C352.026 121.789 354.508 131.059 354.508 143.7H356.508ZM330.508 104.7C322.642 104.7 316.055 107.976 311.474 114.567C306.926 121.111 304.408 130.841 304.408 143.7H306.408C306.408 131.059 308.89 121.789 313.116 115.708C317.31 109.674 323.274 106.7 330.508 106.7V104.7ZM304.408 143.7C304.408 156.609 306.926 166.509 311.467 173.211C316.04 179.959 322.624 183.4 330.508 183.4V181.4C323.291 181.4 317.326 178.291 313.123 172.089C308.89 165.841 306.408 156.391 306.408 143.7H304.408ZM330.508 169.9C329.083 169.9 327.786 169.547 326.623 168.75C325.452 167.948 324.355 166.652 323.411 164.67C321.508 160.675 320.308 154.057 320.308 143.7H318.308C318.308 154.143 319.507 161.125 321.605 165.53C322.661 167.748 323.963 169.352 325.493 170.4C327.029 171.453 328.732 171.9 330.508 171.9V169.9ZM320.308 143.7C320.308 133.391 321.509 126.904 323.406 123.027C324.346 121.105 325.439 119.863 326.606 119.097C327.769 118.334 329.071 118 330.508 118V116C328.745 116 327.047 116.416 325.509 117.425C323.977 118.431 322.669 119.982 321.61 122.148C319.507 126.446 318.308 133.309 318.308 143.7H320.308ZM330.508 118C331.945 118 333.239 118.334 334.391 119.095C335.548 119.86 336.629 121.101 337.557 123.023C339.431 126.901 340.608 133.389 340.608 143.7H342.608C342.608 133.311 341.434 126.449 339.358 122.152C338.312 119.987 337.018 118.434 335.494 117.427C333.964 116.416 332.271 116 330.508 116V118ZM340.608 143.7C340.608 154.059 339.432 160.678 337.553 164.674C336.621 166.657 335.535 167.951 334.374 168.752C333.222 169.547 331.932 169.9 330.508 169.9V171.9C332.284 171.9 333.982 171.453 335.51 170.398C337.031 169.349 338.32 167.743 339.363 165.526C341.434 161.122 342.608 154.141 342.608 143.7H340.608Z" fill="white"/>
<path d="M368.896 161.136V182.16H371.8V163.992H387.736V161.136H368.896ZM386.344 161.136V178.752C386.344 179.184 386.2 179.328 385.744 179.328C385.264 179.328 383.704 179.352 382.312 179.28C382.72 180.024 383.224 181.344 383.344 182.16C385.504 182.16 386.944 182.088 387.928 181.632C388.936 181.152 389.272 180.336 389.272 178.776V161.136H386.344ZM370.48 170.064V172.92H387.76V170.064H370.48ZM377.464 162.696V171.48H380.344V162.696H377.464Z" fill="white"/>
<path d="M213.896 159.136V180.16H216.8V161.992H232.736V159.136H213.896ZM231.344 159.136V176.752C231.344 177.184 231.2 177.328 230.744 177.328C230.264 177.328 228.704 177.352 227.312 177.28C227.72 178.024 228.224 179.344 228.344 180.16C230.504 180.16 231.944 180.088 232.928 179.632C233.936 179.152 234.272 178.336 234.272 176.776V159.136H231.344ZM215.48 168.064V170.92H232.76V168.064H215.48ZM222.464 160.696V169.48H225.344V160.696H222.464Z" fill="white"/>
<path d="M89.496 105.968V108.896H96.288V105.968H89.496ZM94.872 105.968C94.872 110.864 95.928 121.592 105.072 127.088C105.576 126.368 106.728 125.096 107.4 124.568C98.496 119.36 97.848 110.528 97.848 105.968H94.872ZM93.84 111.224C92.544 117.584 89.664 122.24 84.648 124.784C85.392 125.312 86.736 126.512 87.264 127.136C92.28 124.112 95.472 118.952 97.152 111.824L93.84 111.224ZM110.208 123.632L110.592 126.44C114.912 126.272 121.248 125.984 127.128 125.648L127.224 123.008C121.176 123.272 114.504 123.512 110.208 123.632ZM110.088 116.48V119.168H130.056V116.48H110.088ZM114.36 111.872V114.512H125.616V111.872H114.36ZM115.968 118.232C115.368 120.248 114.216 122.912 113.232 124.664L115.752 125.504C116.832 123.896 118.128 121.4 119.256 119.144L115.968 118.232ZM121.92 120.704C123.984 122.624 126.288 125.36 127.296 127.184L129.96 125.576C128.856 123.752 126.624 121.232 124.464 119.384L121.92 120.704ZM119.976 107.432C122.016 110.216 126.072 113.24 129.672 114.92C130.2 114.056 130.848 113.024 131.544 112.304C127.728 110.936 123.912 108.2 121.368 104.672H118.32C116.544 107.504 112.704 110.936 108.6 112.736C109.2 113.36 109.968 114.44 110.304 115.136C114.288 113.24 118.032 110.168 119.976 107.432ZM143.904 107.36C145.968 110.192 149.976 113.432 153.648 115.376C154.176 114.488 154.848 113.504 155.544 112.784C151.728 111.224 147.864 108.2 145.272 104.552H142.272C140.496 107.456 136.632 111.056 132.504 113.072C133.128 113.672 133.944 114.728 134.304 115.4C138.24 113.312 141.912 110.168 143.904 107.36ZM137.88 111.824V114.344H149.976V111.824H137.88ZM135.024 116.72V119.192H152.808V116.72H135.024ZM133.8 124.016V126.488H154.2V124.016H133.8ZM142.32 112.832V125.24H145.392V112.832H142.32ZM136.512 120.104C137.376 121.376 138.264 123.128 138.576 124.232L141.072 123.152C140.712 122.024 139.752 120.368 138.84 119.144L136.512 120.104ZM148.728 119.168C148.2 120.464 147.192 122.216 146.424 123.344L148.584 124.232C149.424 123.224 150.48 121.664 151.464 120.2L148.728 119.168Z" fill="white"/>
<path d="M99.2009 180.756C106.545 180.756 113.187 175.626 113.187 166.77C113.187 158.022 107.571 154.08 100.875 154.08C99.0389 154.08 97.6349 154.458 96.0689 155.16L96.8249 146.682H111.351V140.04H89.9669L88.8329 159.426L92.5049 161.802C94.8269 160.29 96.1229 159.696 98.4989 159.696C102.495 159.696 105.195 162.288 105.195 166.932C105.195 171.684 102.333 174.33 98.1209 174.33C94.4489 174.33 91.5869 172.494 89.3729 170.28L85.6469 175.302C88.6709 178.272 92.8829 180.756 99.2009 180.756ZM129.918 180.756C137.856 180.756 145.254 174.222 145.254 159.102C145.254 145.278 138.45 139.338 130.836 139.338C124.032 139.338 118.308 144.414 118.308 152.676C118.308 161.154 123.06 165.204 129.756 165.204C132.564 165.204 136.182 163.422 138.342 160.452L137.91 155.052C135.966 158.346 133.482 159.588 131.214 159.588C127.812 159.588 125.544 157.32 125.544 152.676C125.544 147.708 127.974 145.278 130.998 145.278C134.886 145.278 137.964 148.896 137.964 159.102C137.964 170.55 134.13 174.33 129.432 174.33C127.056 174.33 124.626 173.088 123.114 171.414L118.902 176.22C121.332 178.704 124.896 180.756 129.918 180.756ZM163.876 180.756C171.922 180.756 177.322 176.166 177.322 170.118C177.322 164.61 174.298 161.424 170.626 159.426V159.156C173.218 157.266 175.756 153.972 175.756 149.976C175.756 143.604 171.22 139.392 164.146 139.392C157.18 139.392 152.05 143.496 152.05 149.922C152.05 154.134 154.318 157.212 157.342 159.426V159.642C153.67 161.586 150.538 164.988 150.538 170.118C150.538 176.382 156.208 180.756 163.876 180.756ZM166.414 157.212C162.202 155.538 159.07 153.648 159.07 149.922C159.07 146.736 161.23 144.954 163.984 144.954C167.278 144.954 169.276 147.222 169.276 150.516C169.276 152.892 168.358 155.16 166.414 157.212ZM164.038 175.14C160.312 175.14 157.342 172.818 157.342 169.2C157.342 166.23 158.854 163.53 161.068 161.802C166.198 163.962 169.924 165.636 169.924 169.794C169.924 173.25 167.494 175.14 164.038 175.14ZM195.782 180.756C203.882 180.756 209.282 173.682 209.282 159.858C209.282 146.088 203.882 139.338 195.782 139.338C187.628 139.338 182.228 146.088 182.228 159.858C182.228 173.682 187.628 180.756 195.782 180.756ZM195.782 174.546C192.326 174.546 189.734 171.09 189.734 159.858C189.734 148.68 192.326 145.44 195.782 145.44C199.238 145.44 201.776 148.68 201.776 159.858C201.776 171.09 199.238 174.546 195.782 174.546Z" fill="white"/>
<path d="M277 141.5L255.25 154.057L255.25 128.943L277 141.5Z" fill="#FF3B10"/>
<line x1="81.3957" y1="139.553" x2="198.396" y2="171.553" stroke="#FF3B10" stroke-width="3"/>
<path d="M339.745 73C340.385 81.6183 341.035 90.2314 341.676 98.8498" stroke="white" stroke-width="2" stroke-linecap="round" stroke-linejoin="bevel"/>
<path d="M372.238 85C367.608 89.4734 362.978 93.9467 358.333 98.4163" stroke="white" stroke-width="2" stroke-linecap="round" stroke-linejoin="bevel"/>
<path d="M388.469 111.851C381.311 113.824 374.153 115.796 367 117.778" stroke="white" stroke-width="2" stroke-linecap="round" stroke-linejoin="bevel"/>
</svg>
