<svg width="318" height="200" viewBox="0 0 318 200" fill="none" xmlns="http://www.w3.org/2000/svg">
<path d="M19.1114 191H23.4954V167.32H17.8314L9.03138 181.656V184.888H26.3114V181.272H13.6074L17.2554 175.384C17.9274 174.104 18.5674 172.792 19.1754 171.512H19.3034C19.2394 172.92 19.1114 175.064 19.1114 176.44V191ZM27.6504 196.824H30.7864L38.7544 165.208H35.6504L27.6504 196.824ZM42.2014 191H56.4734V187.192H52.0254V167.32H48.5374C47.0014 168.248 45.4014 168.856 43.0014 169.304V172.216H47.3214V187.192H42.2014V191ZM67.3164 191.448C71.6684 191.448 75.6044 188.408 75.6044 183.16C75.6044 177.976 72.2764 175.64 68.3084 175.64C67.2204 175.64 66.3884 175.864 65.4604 176.28L65.9084 171.256H74.5164V167.32H61.8444L61.1724 178.808L63.3484 180.216C64.7244 179.32 65.4924 178.968 66.9004 178.968C69.2684 178.968 70.8684 180.504 70.8684 183.256C70.8684 186.072 69.1724 187.64 66.6764 187.64C64.5004 187.64 62.8044 186.552 61.4924 185.24L59.2844 188.216C61.0764 189.976 63.5724 191.448 67.3164 191.448ZM82.9754 195.848L85.1594 194.936C83.1434 191.432 82.2314 187.376 82.2314 183.44C82.2314 179.528 83.1434 175.472 85.1594 171.968L82.9754 171.032C80.6954 174.728 79.3754 178.664 79.3754 183.44C79.3754 188.24 80.6954 192.152 82.9754 195.848ZM87.8697 176.216V179.072H108.99V176.216H87.8697ZM96.8697 170.624V193.16H99.9417V170.624H96.8697ZM96.2457 177.8C94.3977 182.024 90.7497 186.272 86.7897 188.432C87.4617 189.032 88.4457 190.16 88.9497 190.904C93.0777 188.288 96.6297 183.704 98.7897 178.64L96.2457 177.8ZM100.494 177.92L98.0937 178.76C100.302 183.632 103.854 188.216 107.862 190.808C108.342 190.016 109.35 188.864 110.046 188.288C106.134 186.176 102.39 182 100.494 177.92ZM113.862 195.848C116.118 192.152 117.438 188.24 117.438 183.44C117.438 178.664 116.118 174.728 113.862 171.032L111.654 171.968C113.67 175.472 114.606 179.528 114.606 183.44C114.606 187.376 113.67 191.432 111.654 194.936L113.862 195.848ZM134.028 180.216C136.236 182.616 138.54 183.768 141.612 183.768C145.036 183.768 148.14 181.816 150.284 177.848L146.796 175.96C145.58 178.232 143.756 179.768 141.676 179.768C139.5 179.768 138.316 178.936 136.94 177.496C134.732 175.096 132.428 173.944 129.356 173.944C125.932 173.944 122.828 175.896 120.684 179.864L124.172 181.752C125.388 179.48 127.212 177.944 129.292 177.944C131.5 177.944 132.652 178.808 134.028 180.216ZM160.332 191.448C164.684 191.448 168.62 188.408 168.62 183.16C168.62 177.976 165.292 175.64 161.324 175.64C160.236 175.64 159.404 175.864 158.476 176.28L158.924 171.256H167.532V167.32H154.86L154.188 178.808L156.364 180.216C157.74 179.32 158.508 178.968 159.916 178.968C162.284 178.968 163.884 180.504 163.884 183.256C163.884 186.072 162.188 187.64 159.692 187.64C157.516 187.64 155.82 186.552 154.508 185.24L152.3 188.216C154.092 189.976 156.588 191.448 160.332 191.448ZM170.791 196.824H173.927L181.895 165.208H178.791L170.791 196.824ZM185.342 191H199.614V187.192H195.166V167.32H191.678C190.142 168.248 188.542 168.856 186.142 169.304V172.216H190.462V187.192H185.342V191ZM212.377 191H216.761V167.32H211.097L202.297 181.656V184.888H219.577V181.272H206.873L210.521 175.384C211.193 174.104 211.833 172.792 212.441 171.512H212.569C212.505 172.92 212.377 175.064 212.377 176.44V191ZM226.116 195.848L228.3 194.936C226.284 191.432 225.372 187.376 225.372 183.44C225.372 179.528 226.284 175.472 228.3 171.968L226.116 171.032C223.836 174.728 222.516 178.664 222.516 183.44C222.516 188.24 223.836 192.152 226.116 195.848ZM230.794 176.504V179.408H237.49V176.504H230.794ZM240.13 170.648V189.416C240.13 189.872 239.962 190.016 239.482 190.04C238.954 190.04 237.442 190.04 235.858 189.968C236.314 190.832 236.89 192.296 237.01 193.184C239.194 193.184 240.778 193.064 241.81 192.56C242.818 192.032 243.178 191.168 243.178 189.44V170.648H240.13ZM236.506 176.504V177.128C235.69 182.432 233.338 186.608 230.05 188.816C230.746 189.248 231.922 190.424 232.426 191.096C235.858 188.576 238.498 183.68 239.602 177.128L237.61 176.408L237.106 176.504H236.506ZM243.01 174.152L240.73 174.632C242.434 182.048 245.29 188.288 250.858 191.432C251.338 190.544 252.346 189.344 253.066 188.744C247.69 186.176 244.546 180.512 243.01 174.152ZM249.73 174.368C248.242 176.504 245.698 179.12 243.754 180.728L245.818 182.36C247.834 180.848 250.402 178.424 252.442 176.264L249.73 174.368ZM257.002 195.848C259.258 192.152 260.578 188.24 260.578 183.44C260.578 178.664 259.258 174.728 257.002 171.032L254.794 171.968C256.81 175.472 257.746 179.528 257.746 183.44C257.746 187.376 256.81 191.432 254.794 194.936L257.002 195.848Z" fill="#333333"/>
<path d="M260.508 151.873C275.508 151.873 285.508 138.773 285.508 113.173C285.508 87.6731 275.508 75.1731 260.508 75.1731C245.408 75.1731 235.408 87.6731 235.408 113.173C235.408 138.773 245.408 151.873 260.508 151.873ZM260.508 140.373C254.108 140.373 249.308 133.973 249.308 113.173C249.308 92.4731 254.108 86.4731 260.508 86.4731C266.908 86.4731 271.608 92.4731 271.608 113.173C271.608 133.973 266.908 140.373 260.508 140.373Z" fill="#FF3B10"/>
<path d="M257.508 150.4C265.344 150.4 271.903 146.957 276.461 140.21C280.99 133.508 283.508 123.609 283.508 110.7H281.508C281.508 123.391 279.026 132.842 274.804 139.09C270.613 145.293 264.672 148.4 257.508 148.4V150.4ZM283.508 110.7C283.508 97.8408 280.99 88.1113 276.455 81.5679C271.887 74.9778 265.326 71.7 257.508 71.7V73.7C264.69 73.7 270.628 76.6722 274.811 82.7071C279.026 88.7887 281.508 98.0592 281.508 110.7H283.508ZM257.508 71.7C249.642 71.7 243.055 74.9759 238.474 81.5668C233.926 88.1108 231.408 97.8409 231.408 110.7H233.408C233.408 98.0591 235.89 88.7892 240.116 82.7082C244.31 76.6741 250.274 73.7 257.508 73.7V71.7ZM231.408 110.7C231.408 123.609 233.926 133.509 238.467 140.211C243.04 146.959 249.624 150.4 257.508 150.4V148.4C250.291 148.4 244.326 145.291 240.123 139.089C235.89 132.841 233.408 123.391 233.408 110.7H231.408ZM257.508 136.9C256.083 136.9 254.786 136.547 253.623 135.75C252.452 134.948 251.355 133.652 250.411 131.67C248.508 127.675 247.308 121.057 247.308 110.7H245.308C245.308 121.143 246.507 128.125 248.605 132.53C249.661 134.748 250.963 136.352 252.493 137.4C254.029 138.453 255.732 138.9 257.508 138.9V136.9ZM247.308 110.7C247.308 100.391 248.509 93.9043 250.406 90.027C251.346 88.1054 252.439 86.8631 253.606 86.097C254.769 85.3342 256.071 85 257.508 85V83C255.745 83 254.047 83.4158 252.509 84.4249C250.977 85.4306 249.669 86.9821 248.61 89.148C246.507 93.4457 245.308 100.309 245.308 110.7H247.308ZM257.508 85C258.945 85 260.239 85.3341 261.391 86.0952C262.548 86.8599 263.629 88.1006 264.557 90.0226C266.431 93.9009 267.608 100.389 267.608 110.7H269.608C269.608 100.311 268.434 93.4491 266.358 89.1524C265.312 86.9869 264.018 85.4339 262.494 84.4266C260.964 83.4158 259.271 83 257.508 83V85ZM267.608 110.7C267.608 121.059 266.432 127.678 264.553 131.674C263.621 133.657 262.535 134.951 261.374 135.752C260.222 136.547 258.932 136.9 257.508 136.9V138.9C259.284 138.9 260.982 138.453 262.51 137.398C264.031 136.349 265.32 134.743 266.363 132.526C268.434 128.122 269.608 121.141 269.608 110.7H267.608Z" fill="black"/>
<path d="M295.896 128.136V149.16H298.8V130.992H314.736V128.136H295.896ZM313.344 128.136V145.752C313.344 146.184 313.2 146.328 312.744 146.328C312.264 146.328 310.704 146.352 309.312 146.28C309.72 147.024 310.224 148.344 310.344 149.16C312.504 149.16 313.944 149.088 314.928 148.632C315.936 148.152 316.272 147.336 316.272 145.776V128.136H313.344ZM297.48 137.064V139.92H314.76V137.064H297.48ZM304.464 129.696V138.48H307.344V129.696H304.464Z" fill="#333333"/>
<path d="M140.896 126.136V147.16H143.8V128.992H159.736V126.136H140.896ZM158.344 126.136V143.752C158.344 144.184 158.2 144.328 157.744 144.328C157.264 144.328 155.704 144.352 154.312 144.28C154.72 145.024 155.224 146.344 155.344 147.16C157.504 147.16 158.944 147.088 159.928 146.632C160.936 146.152 161.272 145.336 161.272 143.776V126.136H158.344ZM142.48 135.064V137.92H159.76V135.064H142.48ZM149.464 127.696V136.48H152.344V127.696H149.464Z" fill="#333333"/>
<path d="M16.496 72.968V75.896H23.288V72.968H16.496ZM21.872 72.968C21.872 77.864 22.928 88.592 32.072 94.088C32.576 93.368 33.728 92.096 34.4 91.568C25.496 86.36 24.848 77.528 24.848 72.968H21.872ZM20.84 78.224C19.544 84.584 16.664 89.24 11.648 91.784C12.392 92.312 13.736 93.512 14.264 94.136C19.28 91.112 22.472 85.952 24.152 78.824L20.84 78.224ZM37.208 90.632L37.592 93.44C41.912 93.272 48.248 92.984 54.128 92.648L54.224 90.008C48.176 90.272 41.504 90.512 37.208 90.632ZM37.088 83.48V86.168H57.056V83.48H37.088ZM41.36 78.872V81.512H52.616V78.872H41.36ZM42.968 85.232C42.368 87.248 41.216 89.912 40.232 91.664L42.752 92.504C43.832 90.896 45.128 88.4 46.256 86.144L42.968 85.232ZM48.92 87.704C50.984 89.624 53.288 92.36 54.296 94.184L56.96 92.576C55.856 90.752 53.624 88.232 51.464 86.384L48.92 87.704ZM46.976 74.432C49.016 77.216 53.072 80.24 56.672 81.92C57.2 81.056 57.848 80.024 58.544 79.304C54.728 77.936 50.912 75.2 48.368 71.672H45.32C43.544 74.504 39.704 77.936 35.6 79.736C36.2 80.36 36.968 81.44 37.304 82.136C41.288 80.24 45.032 77.168 46.976 74.432ZM70.904 74.36C72.968 77.192 76.976 80.432 80.648 82.376C81.176 81.488 81.848 80.504 82.544 79.784C78.728 78.224 74.864 75.2 72.272 71.552H69.272C67.496 74.456 63.632 78.056 59.504 80.072C60.128 80.672 60.944 81.728 61.304 82.4C65.24 80.312 68.912 77.168 70.904 74.36ZM64.88 78.824V81.344H76.976V78.824H64.88ZM62.024 83.72V86.192H79.808V83.72H62.024ZM60.8 91.016V93.488H81.2V91.016H60.8ZM69.32 79.832V92.24H72.392V79.832H69.32ZM63.512 87.104C64.376 88.376 65.264 90.128 65.576 91.232L68.072 90.152C67.712 89.024 66.752 87.368 65.84 86.144L63.512 87.104ZM75.728 86.168C75.2 87.464 74.192 89.216 73.424 90.344L75.584 91.232C76.424 90.224 77.48 88.664 78.464 87.2L75.728 86.168Z" fill="black"/>
<path d="M26.2009 147.756C33.5449 147.756 40.1869 142.626 40.1869 133.77C40.1869 125.022 34.5709 121.08 27.8749 121.08C26.0389 121.08 24.6349 121.458 23.0689 122.16L23.8249 113.682H38.3509V107.04H16.9669L15.8329 126.426L19.5049 128.802C21.8269 127.29 23.1229 126.696 25.4989 126.696C29.4949 126.696 32.1949 129.288 32.1949 133.932C32.1949 138.684 29.3329 141.33 25.1209 141.33C21.4489 141.33 18.5869 139.494 16.3729 137.28L12.6469 142.302C15.6709 145.272 19.8829 147.756 26.2009 147.756ZM56.9184 147.756C64.8564 147.756 72.2544 141.222 72.2544 126.102C72.2544 112.278 65.4504 106.338 57.8364 106.338C51.0324 106.338 45.3084 111.414 45.3084 119.676C45.3084 128.154 50.0604 132.204 56.7564 132.204C59.5644 132.204 63.1824 130.422 65.3424 127.452L64.9104 122.052C62.9664 125.346 60.4824 126.588 58.2144 126.588C54.8124 126.588 52.5444 124.32 52.5444 119.676C52.5444 114.708 54.9744 112.278 57.9984 112.278C61.8864 112.278 64.9644 115.896 64.9644 126.102C64.9644 137.55 61.1304 141.33 56.4324 141.33C54.0564 141.33 51.6264 140.088 50.1144 138.414L45.9024 143.22C48.3324 145.704 51.8964 147.756 56.9184 147.756ZM90.876 147.756C98.922 147.756 104.322 143.166 104.322 137.118C104.322 131.61 101.298 128.424 97.626 126.426V126.156C100.218 124.266 102.756 120.972 102.756 116.976C102.756 110.604 98.22 106.392 91.146 106.392C84.18 106.392 79.05 110.496 79.05 116.922C79.05 121.134 81.318 124.212 84.342 126.426V126.642C80.67 128.586 77.538 131.988 77.538 137.118C77.538 143.382 83.208 147.756 90.876 147.756ZM93.414 124.212C89.202 122.538 86.07 120.648 86.07 116.922C86.07 113.736 88.23 111.954 90.984 111.954C94.278 111.954 96.276 114.222 96.276 117.516C96.276 119.892 95.358 122.16 93.414 124.212ZM91.038 142.14C87.312 142.14 84.342 139.818 84.342 136.2C84.342 133.23 85.854 130.53 88.068 128.802C93.198 130.962 96.924 132.636 96.924 136.794C96.924 140.25 94.494 142.14 91.038 142.14ZM122.782 147.756C130.882 147.756 136.282 140.682 136.282 126.858C136.282 113.088 130.882 106.338 122.782 106.338C114.628 106.338 109.228 113.088 109.228 126.858C109.228 140.682 114.628 147.756 122.782 147.756ZM122.782 141.546C119.326 141.546 116.734 138.09 116.734 126.858C116.734 115.68 119.326 112.44 122.782 112.44C126.238 112.44 128.776 115.68 128.776 126.858C128.776 138.09 126.238 141.546 122.782 141.546Z" fill="black"/>
<path d="M204 108.5L182.25 121.057L182.25 95.9426L204 108.5Z" fill="#FF3B10"/>
<line x1="8.39572" y1="106.553" x2="125.396" y2="138.553" stroke="#FF3B10" stroke-width="3"/>
<path d="M201.837 69.9009C209.621 73.6551 217.406 77.399 225.19 81.1532" stroke="#333333" stroke-width="2" stroke-linecap="round" stroke-linejoin="bevel"/>
<path d="M228.931 40.8472C230.49 47.0938 232.048 53.3405 233.597 59.5976" stroke="#333333" stroke-width="2" stroke-linecap="round" stroke-linejoin="bevel"/>
<path d="M268.163 41.7856C266.292 48.9709 264.421 56.1561 262.561 63.3413" stroke="#333333" stroke-width="2" stroke-linecap="round" stroke-linejoin="bevel"/>
<g clip-path="url(#clip0_378_51)">
<path d="M13.8901 62.5792L7.92592 40.8311L9.24563 40.4849L15.2196 62.216L13.8901 62.5792Z" fill="black"/>
<path d="M135.263 62.577L133.936 62.2577L139.904 40.4847L141.224 40.8309L135.26 62.579L135.263 62.577Z" fill="black"/>
</g>
<path d="M21.778 33.72C22.098 35.34 24.038 45.42 24.338 47.22C24.478 47.82 24.518 48.5 24.618 49.24L27.498 48.74C27.318 48.08 27.138 47.36 26.998 46.78C26.578 44.74 24.598 34.62 24.398 33.3C24.318 32.82 24.238 32.14 24.198 31.76L21.358 32.22C21.518 32.68 21.658 33.16 21.778 33.72ZM16.318 36.28L16.858 39.04C17.538 38.86 18.058 38.74 18.678 38.62C20.178 38.36 27.058 37.26 29.178 36.92C29.778 36.84 30.598 36.72 31.038 36.7L30.538 34.06C30.058 34.2 29.298 34.38 28.678 34.48C26.878 34.84 19.878 35.92 18.178 36.12C17.538 36.2 16.938 36.24 16.318 36.28ZM16.338 42.14L16.898 44.82C17.338 44.7 18.038 44.58 18.898 44.42C20.878 44.04 28.078 42.86 30.618 42.48C31.358 42.36 32.178 42.22 32.718 42.18L32.198 39.54C31.658 39.68 30.918 39.86 30.138 40C27.838 40.44 20.538 41.62 18.398 41.92C17.778 42.02 16.858 42.12 16.338 42.14ZM42.498 35.3L39.798 35.94C40.018 36.36 40.238 36.86 40.378 37.36C41.018 39.44 42.838 46.58 43.338 48.32C43.498 48.88 43.618 49.54 43.698 50.08L46.398 49.4C46.258 49 45.978 48.12 45.878 47.76C45.378 46.1 43.498 39.22 42.818 36.82C42.698 36.3 42.558 35.78 42.498 35.3ZM52.098 38.4L50.478 37.26C50.218 37.38 49.818 37.5 49.478 37.58C48.058 37.9 40.058 39.42 38.978 39.58C38.318 39.7 37.758 39.76 37.138 39.82L37.758 42.2C39.398 41.84 47.538 40.14 48.578 39.96C48.038 40.94 46.658 42.62 45.618 43.54L47.838 44.64C49.238 43.16 51.238 40.14 52.098 38.4ZM59.318 32.8L57.418 34.82C58.878 35.82 61.398 38 62.438 39.12L64.478 37.04C63.298 35.82 60.698 33.74 59.318 32.8ZM56.798 46.12L58.498 48.76C61.298 48.28 63.878 47.18 65.918 45.96C69.138 44.02 71.798 41.26 73.298 38.54L71.758 35.74C70.478 38.44 67.878 41.48 64.458 43.52C62.518 44.66 59.938 45.68 56.798 46.12ZM88.938 35.76C88.938 35.06 89.518 34.5 90.218 34.5C90.918 34.5 91.478 35.06 91.478 35.76C91.478 36.46 90.918 37.04 90.218 37.04C89.518 37.04 88.938 36.46 88.938 35.76ZM87.618 35.76C87.618 37.2 88.778 38.36 90.218 38.36C91.658 38.36 92.818 37.2 92.818 35.76C92.818 34.32 91.658 33.16 90.218 33.16C88.778 33.16 87.618 34.32 87.618 35.76ZM75.198 42.32L77.598 44.8C77.958 44.28 78.418 43.56 78.878 42.94C79.698 41.84 81.098 39.88 81.898 38.86C82.458 38.14 82.878 38.1 83.538 38.74C84.258 39.48 86.018 41.42 87.198 42.8C88.378 44.18 90.058 46.26 91.398 47.92L93.618 45.54C92.078 43.9 90.018 41.7 88.678 40.26C87.478 38.96 85.958 37.38 84.598 36.1C83.058 34.64 81.878 34.86 80.678 36.28C79.298 37.92 77.738 39.88 76.838 40.78C76.218 41.4 75.778 41.82 75.198 42.32ZM96.318 38.74V41.9C97.078 41.84 98.418 41.78 99.538 41.78C101.898 41.78 108.478 41.78 110.298 41.78C111.138 41.78 112.158 41.88 112.638 41.9V38.74C112.098 38.78 111.218 38.88 110.278 38.88C108.498 38.88 101.898 38.88 99.538 38.88C98.498 38.88 97.058 38.8 96.318 38.74ZM118.322 32.8L116.422 34.82C117.882 35.82 120.402 38 121.442 39.12L123.482 37.04C122.302 35.82 119.702 33.74 118.322 32.8ZM115.802 46.12L117.502 48.76C120.302 48.28 122.882 47.18 124.922 45.96C128.142 44.02 130.802 41.26 132.302 38.54L130.762 35.74C129.482 38.44 126.882 41.48 123.462 43.52C121.522 44.66 118.942 45.68 115.802 46.12Z" fill="#333333"/>
<path d="M26.28 6.92V9.08H31.46V6.92H26.28ZM26.28 11.44V13.54H31.46V11.44H26.28ZM26.28 16V18.14H31.48V16H26.28ZM30.42 6.92V22.12C30.42 22.42 30.32 22.52 30.02 22.52C29.74 22.54 28.76 22.54 27.9 22.5C28.2 23.1 28.52 24.14 28.58 24.78C30.08 24.78 31.1 24.72 31.8 24.34C32.52 23.98 32.74 23.32 32.74 22.16V6.92H30.42ZM25.3 6.92V14.26C25.3 17.12 25.18 20.92 23.68 23.48C24.2 23.72 25.18 24.42 25.58 24.84C27.28 22 27.54 17.42 27.54 14.26V6.92H25.3ZM14.82 8.38V10.46H24.62V8.38H14.82ZM17.44 11.64V13.48H22.2V11.64H17.44ZM17.44 14.76V16.58H22.22V14.76H17.44ZM14.58 17.92V20.02H24.48V17.92H14.58ZM16.4 6.24V18.68H18.56V6.24H16.4ZM21.06 6.24V18.68H23.26V6.24H21.06ZM17.08 20.16C16.52 21.38 15.5 22.62 14.42 23.44C14.98 23.76 15.9 24.44 16.36 24.84C17.42 23.86 18.6 22.3 19.34 20.82L17.08 20.16ZM20.04 21.06C20.84 22 21.8 23.32 22.2 24.12L24.14 22.98C23.68 22.16 22.66 20.94 21.86 20.06L20.04 21.06ZM41.24 18.22V19.94H46.72V18.22H41.24ZM41.1 15.26V17.02H45.6V21.18H41.1V22.94H47.84V15.26H41.1ZM40.12 15.26V23.96H42.28V15.26H40.12ZM36.76 9.56V11.18H41.78V9.56H36.76ZM46.04 9.56V11.18H51.1V9.56H46.04ZM50.12 6.78V21.94C50.12 22.28 50 22.4 49.64 22.4C49.28 22.4 48.06 22.42 47.02 22.36C47.34 23 47.7 24.12 47.8 24.8C49.52 24.8 50.68 24.76 51.48 24.36C52.28 23.96 52.54 23.26 52.54 21.96V6.78H50.12ZM36.96 6.78V8.52H41.04V12.32H36.96V14.04H43.28V6.78H36.96ZM51.4 6.78H44.64V14.1H51.4V12.38H46.92V8.52H51.4V6.78ZM35.58 6.78V24.8H37.96V6.78H35.58ZM64.1 10.58V12.54H71V10.58H64.1ZM60.66 22.16L61.46 24.5C63.36 24.08 65.82 23.54 68.14 23L67.96 20.92C65.28 21.4 62.48 21.9 60.66 22.16ZM62.74 6.92V22.72H65.08V6.92H62.74ZM64.1 6.92V8.98H69.72V14.2H64.1V16.26H72.08V6.92H64.1ZM68.28 14.9L66.28 15.22C67.14 19.64 68.7 23.04 71.92 24.74C72.26 24.12 72.96 23.18 73.48 22.72C70.54 21.42 69 18.46 68.28 14.9ZM71.16 16.4C70.42 17.4 69.12 18.66 68.16 19.44L69.66 20.6C70.66 19.88 71.94 18.76 73.04 17.72L71.16 16.4ZM55.46 6.88V24.82H57.7V9.02H60.46V6.88H55.46ZM59.8 6.88V7.6C59.48 8.88 58.8 11.72 58.22 13.52C59.4 14.88 59.7 16.12 59.7 17.06C59.7 17.62 59.6 18.02 59.34 18.2C59.16 18.32 58.96 18.36 58.74 18.38C58.48 18.38 58.2 18.38 57.82 18.34C58.16 18.94 58.34 19.88 58.36 20.48C58.84 20.5 59.36 20.5 59.74 20.44C60.2 20.38 60.6 20.24 60.92 20C61.58 19.54 61.88 18.7 61.88 17.36C61.88 16.2 61.62 14.82 60.3 13.26C60.92 11.7 61.64 9.48 62.18 7.74L60.56 6.8L60.22 6.88H59.8ZM78.46 12.06V14.34H89.52V12.06H78.46ZM83.98 16.86V19.1H90.74V16.86H83.98ZM82.72 13.38V22.74L85.24 23.04V13.38H82.72ZM77.94 15.46C77.6 18.9 76.6 21.68 74.44 23.28C75 23.64 76.02 24.5 76.42 24.92C78.7 22.96 79.94 19.78 80.46 15.72L77.94 15.46ZM79.88 17.96L77.92 18.62C79.64 23.66 82.76 24.6 87.38 24.6H92.42C92.52 23.88 92.92 22.72 93.26 22.16C91.92 22.2 88.58 22.2 87.52 22.2C83.96 22.2 81.16 21.64 79.88 17.96ZM82.68 6.04V9.7H85.24V6.04H82.68ZM75.4 8.06V13.08H77.76V10.34H90.12V13.08H92.6V8.06H75.4Z" fill="#333333"/>
<defs>
<clipPath id="clip0_378_51">
<rect width="160" height="17" fill="white" transform="translate(0 44)"/>
</clipPath>
</defs>
</svg>
