<svg width="310" height="200" viewBox="0 0 310 200" fill="none" xmlns="http://www.w3.org/2000/svg">
<path d="M39.1114 191H43.4954V167.32H37.8314L29.0314 181.656V184.888H46.3114V181.272H33.6074L37.2554 175.384C37.9274 174.104 38.5674 172.792 39.1754 171.512H39.3034C39.2394 172.92 39.1114 175.064 39.1114 176.44V191ZM47.6504 196.824H50.7864L58.7544 165.208H55.6504L47.6504 196.824ZM62.2014 191H76.4734V187.192H72.0254V167.32H68.5374C67.0014 168.248 65.4014 168.856 63.0014 169.304V172.216H67.3214V187.192H62.2014V191ZM87.3164 191.448C91.6684 191.448 95.6044 188.408 95.6044 183.16C95.6044 177.976 92.2764 175.64 88.3084 175.64C87.2204 175.64 86.3884 175.864 85.4604 176.28L85.9084 171.256H94.5164V167.32H81.8444L81.1724 178.808L83.3484 180.216C84.7244 179.32 85.4924 178.968 86.9004 178.968C89.2684 178.968 90.8684 180.504 90.8684 183.256C90.8684 186.072 89.1724 187.64 86.6764 187.64C84.5004 187.64 82.8044 186.552 81.4924 185.24L79.2844 188.216C81.0764 189.976 83.5724 191.448 87.3164 191.448ZM102.975 195.848L105.159 194.936C103.143 191.432 102.231 187.376 102.231 183.44C102.231 179.528 103.143 175.472 105.159 171.968L102.975 171.032C100.695 174.728 99.3754 178.664 99.3754 183.44C99.3754 188.24 100.695 192.152 102.975 195.848ZM107.87 176.216V179.072H128.99V176.216H107.87ZM116.87 170.624V193.16H119.942V170.624H116.87ZM116.246 177.8C114.398 182.024 110.75 186.272 106.79 188.432C107.462 189.032 108.446 190.16 108.95 190.904C113.078 188.288 116.63 183.704 118.79 178.64L116.246 177.8ZM120.494 177.92L118.094 178.76C120.302 183.632 123.854 188.216 127.862 190.808C128.342 190.016 129.35 188.864 130.046 188.288C126.134 186.176 122.39 182 120.494 177.92ZM133.862 195.848C136.118 192.152 137.438 188.24 137.438 183.44C137.438 178.664 136.118 174.728 133.862 171.032L131.654 171.968C133.67 175.472 134.606 179.528 134.606 183.44C134.606 187.376 133.67 191.432 131.654 194.936L133.862 195.848ZM154.028 180.216C156.236 182.616 158.54 183.768 161.612 183.768C165.036 183.768 168.14 181.816 170.284 177.848L166.796 175.96C165.58 178.232 163.756 179.768 161.676 179.768C159.5 179.768 158.316 178.936 156.94 177.496C154.732 175.096 152.428 173.944 149.356 173.944C145.932 173.944 142.828 175.896 140.684 179.864L144.172 181.752C145.388 179.48 147.212 177.944 149.292 177.944C151.5 177.944 152.652 178.808 154.028 180.216ZM180.332 191.448C184.684 191.448 188.62 188.408 188.62 183.16C188.62 177.976 185.292 175.64 181.324 175.64C180.236 175.64 179.404 175.864 178.476 176.28L178.924 171.256H187.532V167.32H174.86L174.188 178.808L176.364 180.216C177.74 179.32 178.508 178.968 179.916 178.968C182.284 178.968 183.884 180.504 183.884 183.256C183.884 186.072 182.188 187.64 179.692 187.64C177.516 187.64 175.82 186.552 174.508 185.24L172.3 188.216C174.092 189.976 176.588 191.448 180.332 191.448ZM190.791 196.824H193.927L201.895 165.208H198.791L190.791 196.824ZM205.342 191H219.614V187.192H215.166V167.32H211.678C210.142 168.248 208.542 168.856 206.142 169.304V172.216H210.462V187.192H205.342V191ZM232.377 191H236.761V167.32H231.097L222.297 181.656V184.888H239.577V181.272H226.873L230.521 175.384C231.193 174.104 231.833 172.792 232.441 171.512H232.569C232.505 172.92 232.377 175.064 232.377 176.44V191ZM246.116 195.848L248.3 194.936C246.284 191.432 245.372 187.376 245.372 183.44C245.372 179.528 246.284 175.472 248.3 171.968L246.116 171.032C243.836 174.728 242.516 178.664 242.516 183.44C242.516 188.24 243.836 192.152 246.116 195.848ZM250.794 176.504V179.408H257.49V176.504H250.794ZM260.13 170.648V189.416C260.13 189.872 259.962 190.016 259.482 190.04C258.954 190.04 257.442 190.04 255.858 189.968C256.314 190.832 256.89 192.296 257.01 193.184C259.194 193.184 260.778 193.064 261.81 192.56C262.818 192.032 263.178 191.168 263.178 189.44V170.648H260.13ZM256.506 176.504V177.128C255.69 182.432 253.338 186.608 250.05 188.816C250.746 189.248 251.922 190.424 252.426 191.096C255.858 188.576 258.498 183.68 259.602 177.128L257.61 176.408L257.106 176.504H256.506ZM263.01 174.152L260.73 174.632C262.434 182.048 265.29 188.288 270.858 191.432C271.338 190.544 272.346 189.344 273.066 188.744C267.69 186.176 264.546 180.512 263.01 174.152ZM269.73 174.368C268.242 176.504 265.698 179.12 263.754 180.728L265.818 182.36C267.834 180.848 270.402 178.424 272.442 176.264L269.73 174.368ZM277.002 195.848C279.258 192.152 280.578 188.24 280.578 183.44C280.578 178.664 279.258 174.728 277.002 171.032L274.794 171.968C276.81 175.472 277.746 179.528 277.746 183.44C277.746 187.376 276.81 191.432 274.794 194.936L277.002 195.848Z" fill="white"/>
<path d="M252.508 151.873C267.508 151.873 277.508 138.773 277.508 113.173C277.508 87.6731 267.508 75.1731 252.508 75.1731C237.408 75.1731 227.408 87.6731 227.408 113.173C227.408 138.773 237.408 151.873 252.508 151.873ZM252.508 140.373C246.108 140.373 241.308 133.973 241.308 113.173C241.308 92.4731 246.108 86.4731 252.508 86.4731C258.908 86.4731 263.608 92.4731 263.608 113.173C263.608 133.973 258.908 140.373 252.508 140.373Z" fill="#FF3B10"/>
<path d="M249.508 150.4C257.344 150.4 263.903 146.957 268.461 140.21C272.99 133.508 275.508 123.609 275.508 110.7H273.508C273.508 123.391 271.026 132.842 266.804 139.09C262.613 145.293 256.672 148.4 249.508 148.4V150.4ZM275.508 110.7C275.508 97.8408 272.99 88.1113 268.455 81.5679C263.887 74.9778 257.326 71.7 249.508 71.7V73.7C256.69 73.7 262.628 76.6722 266.811 82.7071C271.026 88.7887 273.508 98.0592 273.508 110.7H275.508ZM249.508 71.7C241.642 71.7 235.055 74.9759 230.474 81.5668C225.926 88.1108 223.408 97.8409 223.408 110.7H225.408C225.408 98.0591 227.89 88.7892 232.116 82.7082C236.31 76.6741 242.274 73.7 249.508 73.7V71.7ZM223.408 110.7C223.408 123.609 225.926 133.509 230.467 140.211C235.04 146.959 241.624 150.4 249.508 150.4V148.4C242.291 148.4 236.326 145.291 232.123 139.089C227.89 132.841 225.408 123.391 225.408 110.7H223.408ZM249.508 136.9C248.083 136.9 246.786 136.547 245.623 135.75C244.452 134.948 243.355 133.652 242.411 131.67C240.508 127.675 239.308 121.057 239.308 110.7H237.308C237.308 121.143 238.507 128.125 240.605 132.53C241.661 134.748 242.963 136.352 244.493 137.4C246.029 138.453 247.732 138.9 249.508 138.9V136.9ZM239.308 110.7C239.308 100.391 240.509 93.9043 242.406 90.027C243.346 88.1054 244.439 86.8631 245.606 86.097C246.769 85.3342 248.071 85 249.508 85V83C247.745 83 246.047 83.4158 244.509 84.4249C242.977 85.4306 241.669 86.9821 240.61 89.148C238.507 93.4457 237.308 100.309 237.308 110.7H239.308ZM249.508 85C250.945 85 252.239 85.3341 253.391 86.0952C254.548 86.8599 255.629 88.1006 256.557 90.0226C258.431 93.9009 259.608 100.389 259.608 110.7H261.608C261.608 100.311 260.434 93.4491 258.358 89.1524C257.312 86.9869 256.018 85.4339 254.494 84.4266C252.964 83.4158 251.271 83 249.508 83V85ZM259.608 110.7C259.608 121.059 258.432 127.678 256.553 131.674C255.621 133.657 254.535 134.951 253.374 135.752C252.222 136.547 250.932 136.9 249.508 136.9V138.9C251.284 138.9 252.982 138.453 254.51 137.398C256.031 136.349 257.32 134.743 258.363 132.526C260.434 128.122 261.608 121.141 261.608 110.7H259.608Z" fill="white"/>
<path d="M287.896 128.136V149.16H290.8V130.992H306.736V128.136H287.896ZM305.344 128.136V145.752C305.344 146.184 305.2 146.328 304.744 146.328C304.264 146.328 302.704 146.352 301.312 146.28C301.72 147.024 302.224 148.344 302.344 149.16C304.504 149.16 305.944 149.088 306.928 148.632C307.936 148.152 308.272 147.336 308.272 145.776V128.136H305.344ZM289.48 137.064V139.92H306.76V137.064H289.48ZM296.464 129.696V138.48H299.344V129.696H296.464Z" fill="white"/>
<path d="M132.896 126.136V147.16H135.8V128.992H151.736V126.136H132.896ZM150.344 126.136V143.752C150.344 144.184 150.2 144.328 149.744 144.328C149.264 144.328 147.704 144.352 146.312 144.28C146.72 145.024 147.224 146.344 147.344 147.16C149.504 147.16 150.944 147.088 151.928 146.632C152.936 146.152 153.272 145.336 153.272 143.776V126.136H150.344ZM134.48 135.064V137.92H151.76V135.064H134.48ZM141.464 127.696V136.48H144.344V127.696H141.464Z" fill="white"/>
<path d="M8.496 72.968V75.896H15.288V72.968H8.496ZM13.872 72.968C13.872 77.864 14.928 88.592 24.072 94.088C24.576 93.368 25.728 92.096 26.4 91.568C17.496 86.36 16.848 77.528 16.848 72.968H13.872ZM12.84 78.224C11.544 84.584 8.664 89.24 3.648 91.784C4.392 92.312 5.736 93.512 6.264 94.136C11.28 91.112 14.472 85.952 16.152 78.824L12.84 78.224ZM29.208 90.632L29.592 93.44C33.912 93.272 40.248 92.984 46.128 92.648L46.224 90.008C40.176 90.272 33.504 90.512 29.208 90.632ZM29.088 83.48V86.168H49.056V83.48H29.088ZM33.36 78.872V81.512H44.616V78.872H33.36ZM34.968 85.232C34.368 87.248 33.216 89.912 32.232 91.664L34.752 92.504C35.832 90.896 37.128 88.4 38.256 86.144L34.968 85.232ZM40.92 87.704C42.984 89.624 45.288 92.36 46.296 94.184L48.96 92.576C47.856 90.752 45.624 88.232 43.464 86.384L40.92 87.704ZM38.976 74.432C41.016 77.216 45.072 80.24 48.672 81.92C49.2 81.056 49.848 80.024 50.544 79.304C46.728 77.936 42.912 75.2 40.368 71.672H37.32C35.544 74.504 31.704 77.936 27.6 79.736C28.2 80.36 28.968 81.44 29.304 82.136C33.288 80.24 37.032 77.168 38.976 74.432ZM62.904 74.36C64.968 77.192 68.976 80.432 72.648 82.376C73.176 81.488 73.848 80.504 74.544 79.784C70.728 78.224 66.864 75.2 64.272 71.552H61.272C59.496 74.456 55.632 78.056 51.504 80.072C52.128 80.672 52.944 81.728 53.304 82.4C57.24 80.312 60.912 77.168 62.904 74.36ZM56.88 78.824V81.344H68.976V78.824H56.88ZM54.024 83.72V86.192H71.808V83.72H54.024ZM52.8 91.016V93.488H73.2V91.016H52.8ZM61.32 79.832V92.24H64.392V79.832H61.32ZM55.512 87.104C56.376 88.376 57.264 90.128 57.576 91.232L60.072 90.152C59.712 89.024 58.752 87.368 57.84 86.144L55.512 87.104ZM67.728 86.168C67.2 87.464 66.192 89.216 65.424 90.344L67.584 91.232C68.424 90.224 69.48 88.664 70.464 87.2L67.728 86.168Z" fill="white"/>
<path d="M18.2009 147.756C25.5449 147.756 32.1869 142.626 32.1869 133.77C32.1869 125.022 26.5709 121.08 19.8749 121.08C18.0389 121.08 16.6349 121.458 15.0689 122.16L15.8249 113.682H30.3509V107.04H8.96688L7.83288 126.426L11.5049 128.802C13.8269 127.29 15.1229 126.696 17.4989 126.696C21.4949 126.696 24.1949 129.288 24.1949 133.932C24.1949 138.684 21.3329 141.33 17.1209 141.33C13.4489 141.33 10.5869 139.494 8.37288 137.28L4.64688 142.302C7.67088 145.272 11.8829 147.756 18.2009 147.756ZM48.9184 147.756C56.8564 147.756 64.2544 141.222 64.2544 126.102C64.2544 112.278 57.4504 106.338 49.8364 106.338C43.0324 106.338 37.3084 111.414 37.3084 119.676C37.3084 128.154 42.0604 132.204 48.7564 132.204C51.5644 132.204 55.1824 130.422 57.3424 127.452L56.9104 122.052C54.9664 125.346 52.4824 126.588 50.2144 126.588C46.8124 126.588 44.5444 124.32 44.5444 119.676C44.5444 114.708 46.9744 112.278 49.9984 112.278C53.8864 112.278 56.9644 115.896 56.9644 126.102C56.9644 137.55 53.1304 141.33 48.4324 141.33C46.0564 141.33 43.6264 140.088 42.1144 138.414L37.9024 143.22C40.3324 145.704 43.8964 147.756 48.9184 147.756ZM82.876 147.756C90.922 147.756 96.322 143.166 96.322 137.118C96.322 131.61 93.298 128.424 89.626 126.426V126.156C92.218 124.266 94.756 120.972 94.756 116.976C94.756 110.604 90.22 106.392 83.146 106.392C76.18 106.392 71.05 110.496 71.05 116.922C71.05 121.134 73.318 124.212 76.342 126.426V126.642C72.67 128.586 69.538 131.988 69.538 137.118C69.538 143.382 75.208 147.756 82.876 147.756ZM85.414 124.212C81.202 122.538 78.07 120.648 78.07 116.922C78.07 113.736 80.23 111.954 82.984 111.954C86.278 111.954 88.276 114.222 88.276 117.516C88.276 119.892 87.358 122.16 85.414 124.212ZM83.038 142.14C79.312 142.14 76.342 139.818 76.342 136.2C76.342 133.23 77.854 130.53 80.068 128.802C85.198 130.962 88.924 132.636 88.924 136.794C88.924 140.25 86.494 142.14 83.038 142.14ZM114.782 147.756C122.882 147.756 128.282 140.682 128.282 126.858C128.282 113.088 122.882 106.338 114.782 106.338C106.628 106.338 101.228 113.088 101.228 126.858C101.228 140.682 106.628 147.756 114.782 147.756ZM114.782 141.546C111.326 141.546 108.734 138.09 108.734 126.858C108.734 115.68 111.326 112.44 114.782 112.44C118.238 112.44 120.776 115.68 120.776 126.858C120.776 138.09 118.238 141.546 114.782 141.546Z" fill="white"/>
<path d="M196 108.5L174.25 121.057L174.25 95.9426L196 108.5Z" fill="#FF3B10"/>
<line x1="0.395722" y1="106.553" x2="117.396" y2="138.553" stroke="#FF3B10" stroke-width="3"/>
<path d="M260.302 38C259.996 46.6367 259.699 55.2692 259.393 63.9058" stroke="white" stroke-width="2" stroke-linecap="round" stroke-linejoin="bevel"/>
<path d="M290.255 48C286.519 53.2432 282.782 58.4865 279.032 63.7286" stroke="white" stroke-width="2" stroke-linecap="round" stroke-linejoin="bevel"/>
<path d="M303.027 70.2586C296.349 73.5042 289.671 76.7499 283 80.0035" stroke="white" stroke-width="2" stroke-linecap="round" stroke-linejoin="bevel"/>
<path d="M88.8901 62.5792L82.9259 40.8311L84.2456 40.4849L90.2196 62.216L88.8901 62.5792Z" fill="white"/>
<path d="M221.263 62.577L219.936 62.2577L225.904 40.4847L227.224 40.8309L221.26 62.579L221.263 62.577Z" fill="white"/>
<path d="M102.778 33.72C103.098 35.34 105.038 45.42 105.338 47.22C105.478 47.82 105.518 48.5 105.618 49.24L108.498 48.74C108.318 48.08 108.138 47.36 107.998 46.78C107.578 44.74 105.598 34.62 105.398 33.3C105.318 32.82 105.238 32.14 105.198 31.76L102.358 32.22C102.518 32.68 102.658 33.16 102.778 33.72ZM97.318 36.28L97.858 39.04C98.538 38.86 99.058 38.74 99.678 38.62C101.178 38.36 108.058 37.26 110.178 36.92C110.778 36.84 111.598 36.72 112.038 36.7L111.538 34.06C111.058 34.2 110.298 34.38 109.678 34.48C107.878 34.84 100.878 35.92 99.178 36.12C98.538 36.2 97.938 36.24 97.318 36.28ZM97.338 42.14L97.898 44.82C98.338 44.7 99.038 44.58 99.898 44.42C101.878 44.04 109.078 42.86 111.618 42.48C112.358 42.36 113.178 42.22 113.718 42.18L113.198 39.54C112.658 39.68 111.918 39.86 111.138 40C108.838 40.44 101.538 41.62 99.398 41.92C98.778 42.02 97.858 42.12 97.338 42.14ZM123.498 35.3L120.798 35.94C121.018 36.36 121.238 36.86 121.378 37.36C122.018 39.44 123.838 46.58 124.338 48.32C124.498 48.88 124.618 49.54 124.698 50.08L127.398 49.4C127.258 49 126.978 48.12 126.878 47.76C126.378 46.1 124.498 39.22 123.818 36.82C123.698 36.3 123.558 35.78 123.498 35.3ZM133.098 38.4L131.478 37.26C131.218 37.38 130.818 37.5 130.478 37.58C129.058 37.9 121.058 39.42 119.978 39.58C119.318 39.7 118.758 39.76 118.138 39.82L118.758 42.2C120.398 41.84 128.538 40.14 129.578 39.96C129.038 40.94 127.658 42.62 126.618 43.54L128.838 44.64C130.238 43.16 132.238 40.14 133.098 38.4ZM140.318 32.8L138.418 34.82C139.878 35.82 142.398 38 143.438 39.12L145.478 37.04C144.298 35.82 141.698 33.74 140.318 32.8ZM137.798 46.12L139.498 48.76C142.298 48.28 144.878 47.18 146.918 45.96C150.138 44.02 152.798 41.26 154.298 38.54L152.758 35.74C151.478 38.44 148.878 41.48 145.458 43.52C143.518 44.66 140.938 45.68 137.798 46.12ZM169.938 35.76C169.938 35.06 170.518 34.5 171.218 34.5C171.918 34.5 172.478 35.06 172.478 35.76C172.478 36.46 171.918 37.04 171.218 37.04C170.518 37.04 169.938 36.46 169.938 35.76ZM168.618 35.76C168.618 37.2 169.778 38.36 171.218 38.36C172.658 38.36 173.818 37.2 173.818 35.76C173.818 34.32 172.658 33.16 171.218 33.16C169.778 33.16 168.618 34.32 168.618 35.76ZM156.198 42.32L158.598 44.8C158.958 44.28 159.418 43.56 159.878 42.94C160.698 41.84 162.098 39.88 162.898 38.86C163.458 38.14 163.878 38.1 164.538 38.74C165.258 39.48 167.018 41.42 168.198 42.8C169.378 44.18 171.058 46.26 172.398 47.92L174.618 45.54C173.078 43.9 171.018 41.7 169.678 40.26C168.478 38.96 166.958 37.38 165.598 36.1C164.058 34.64 162.878 34.86 161.678 36.28C160.298 37.92 158.738 39.88 157.838 40.78C157.218 41.4 156.778 41.82 156.198 42.32ZM177.318 38.74V41.9C178.078 41.84 179.418 41.78 180.538 41.78C182.898 41.78 189.478 41.78 191.298 41.78C192.138 41.78 193.158 41.88 193.638 41.9V38.74C193.098 38.78 192.218 38.88 191.278 38.88C189.498 38.88 182.898 38.88 180.538 38.88C179.498 38.88 178.058 38.8 177.318 38.74ZM199.322 32.8L197.422 34.82C198.882 35.82 201.402 38 202.442 39.12L204.482 37.04C203.302 35.82 200.702 33.74 199.322 32.8ZM196.802 46.12L198.502 48.76C201.302 48.28 203.882 47.18 205.922 45.96C209.142 44.02 211.802 41.26 213.302 38.54L211.762 35.74C210.482 38.44 207.882 41.48 204.462 43.52C202.522 44.66 199.942 45.68 196.802 46.12Z" fill="white"/>
<path d="M107.28 6.92V9.08H112.46V6.92H107.28ZM107.28 11.44V13.54H112.46V11.44H107.28ZM107.28 16V18.14H112.48V16H107.28ZM111.42 6.92V22.12C111.42 22.42 111.32 22.52 111.02 22.52C110.74 22.54 109.76 22.54 108.9 22.5C109.2 23.1 109.52 24.14 109.58 24.78C111.08 24.78 112.1 24.72 112.8 24.34C113.52 23.98 113.74 23.32 113.74 22.16V6.92H111.42ZM106.3 6.92V14.26C106.3 17.12 106.18 20.92 104.68 23.48C105.2 23.72 106.18 24.42 106.58 24.84C108.28 22 108.54 17.42 108.54 14.26V6.92H106.3ZM95.82 8.38V10.46H105.62V8.38H95.82ZM98.44 11.64V13.48H103.2V11.64H98.44ZM98.44 14.76V16.58H103.22V14.76H98.44ZM95.58 17.92V20.02H105.48V17.92H95.58ZM97.4 6.24V18.68H99.56V6.24H97.4ZM102.06 6.24V18.68H104.26V6.24H102.06ZM98.08 20.16C97.52 21.38 96.5 22.62 95.42 23.44C95.98 23.76 96.9 24.44 97.36 24.84C98.42 23.86 99.6 22.3 100.34 20.82L98.08 20.16ZM101.04 21.06C101.84 22 102.8 23.32 103.2 24.12L105.14 22.98C104.68 22.16 103.66 20.94 102.86 20.06L101.04 21.06ZM122.24 18.22V19.94H127.72V18.22H122.24ZM122.1 15.26V17.02H126.6V21.18H122.1V22.94H128.84V15.26H122.1ZM121.12 15.26V23.96H123.28V15.26H121.12ZM117.76 9.56V11.18H122.78V9.56H117.76ZM127.04 9.56V11.18H132.1V9.56H127.04ZM131.12 6.78V21.94C131.12 22.28 131 22.4 130.64 22.4C130.28 22.4 129.06 22.42 128.02 22.36C128.34 23 128.7 24.12 128.8 24.8C130.52 24.8 131.68 24.76 132.48 24.36C133.28 23.96 133.54 23.26 133.54 21.96V6.78H131.12ZM117.96 6.78V8.52H122.04V12.32H117.96V14.04H124.28V6.78H117.96ZM132.4 6.78H125.64V14.1H132.4V12.38H127.92V8.52H132.4V6.78ZM116.58 6.78V24.8H118.96V6.78H116.58ZM145.1 10.58V12.54H152V10.58H145.1ZM141.66 22.16L142.46 24.5C144.36 24.08 146.82 23.54 149.14 23L148.96 20.92C146.28 21.4 143.48 21.9 141.66 22.16ZM143.74 6.92V22.72H146.08V6.92H143.74ZM145.1 6.92V8.98H150.72V14.2H145.1V16.26H153.08V6.92H145.1ZM149.28 14.9L147.28 15.22C148.14 19.64 149.7 23.04 152.92 24.74C153.26 24.12 153.96 23.18 154.48 22.72C151.54 21.42 150 18.46 149.28 14.9ZM152.16 16.4C151.42 17.4 150.12 18.66 149.16 19.44L150.66 20.6C151.66 19.88 152.94 18.76 154.04 17.72L152.16 16.4ZM136.46 6.88V24.82H138.7V9.02H141.46V6.88H136.46ZM140.8 6.88V7.6C140.48 8.88 139.8 11.72 139.22 13.52C140.4 14.88 140.7 16.12 140.7 17.06C140.7 17.62 140.6 18.02 140.34 18.2C140.16 18.32 139.96 18.36 139.74 18.38C139.48 18.38 139.2 18.38 138.82 18.34C139.16 18.94 139.34 19.88 139.36 20.48C139.84 20.5 140.36 20.5 140.74 20.44C141.2 20.38 141.6 20.24 141.92 20C142.58 19.54 142.88 18.7 142.88 17.36C142.88 16.2 142.62 14.82 141.3 13.26C141.92 11.7 142.64 9.48 143.18 7.74L141.56 6.8L141.22 6.88H140.8ZM159.46 12.06V14.34H170.52V12.06H159.46ZM164.98 16.86V19.1H171.74V16.86H164.98ZM163.72 13.38V22.74L166.24 23.04V13.38H163.72ZM158.94 15.46C158.6 18.9 157.6 21.68 155.44 23.28C156 23.64 157.02 24.5 157.42 24.92C159.7 22.96 160.94 19.78 161.46 15.72L158.94 15.46ZM160.88 17.96L158.92 18.62C160.64 23.66 163.76 24.6 168.38 24.6H173.42C173.52 23.88 173.92 22.72 174.26 22.16C172.92 22.2 169.58 22.2 168.52 22.2C164.96 22.2 162.16 21.64 160.88 17.96ZM163.68 6.04V9.7H166.24V6.04H163.68ZM156.4 8.06V13.08H158.76V10.34H171.12V13.08H173.6V8.06H156.4Z" fill="white"/>
</svg>
